<?xml version="1.0" standalone="no"?><!DOCTYPE svg PUBLIC "-//W3C//DTD SVG 1.1//EN" "http://www.w3.org/Graphics/SVG/1.1/DTD/svg11.dtd"><svg t="1576482478508" class="icon" viewBox="0 0 1024 1024" version="1.1" xmlns="http://www.w3.org/2000/svg" p-id="2851" width="16" height="16" xmlns:xlink="http://www.w3.org/1999/xlink"><defs><style type="text/css"></style></defs><path d="M999.68 880.213333l-249.173333-249.173333c41.813333-64 66.133333-140.8 66.133333-222.72C816.64 183.04 634.026667 0 408.32 0 183.04 0 0 183.04 0 408.32c0 225.706667 183.04 408.32 408.32 408.32 82.773333 0 160-24.746667 224.426667-67.413333l248.746666 248.746666c32.426667 32.426667 85.333333 32.426667 117.76 0 32.853333-32.426667 32.853333-85.333333 0.426667-117.76zM137.813333 408.32c0-150.613333 122.026667-272.64 272.64-272.64s272.64 122.026667 272.64 272.64-122.026667 272.64-272.64 272.64S137.813333 558.933333 137.813333 408.32z" fill="#2c2c2c" p-id="2852"></path></svg>