<?xml version="1.0" standalone="no"?><!DOCTYPE svg PUBLIC "-//W3C//DTD SVG 1.1//EN" "http://www.w3.org/Graphics/SVG/1.1/DTD/svg11.dtd"><svg t="1576548894422" class="icon" viewBox="0 0 1024 1024" version="1.1" xmlns="http://www.w3.org/2000/svg" p-id="4801" width="16" height="16" xmlns:xlink="http://www.w3.org/1999/xlink"><defs><style type="text/css"></style></defs><path d="M909.73518132 398.46908591h-253.76540309c98.33206847-363.16187291-67.75031058-381.7100633-67.75031058-381.71006331-70.3912147 0-55.79922532 55.66224591-61.12227466 64.94296916 0 177.60190555-188.63979473 316.76856706-188.63979473 316.76856707v503.65119579c0 49.71616122 67.75031058 67.62069567 94.32726185 67.62069567h381.28292321c35.88418663 0 65.1049878-94.10632733 65.10498778-94.10632731 94.32873475-320.75275311 94.32873475-416.18763342 94.32873476-416.18763341 0.0014729-66.27004923-63.76612453-60.97498495-63.76612454-60.97498498v0 0zM909.73518132 398.46908591z" fill="#cdcdcd" p-id="4802"></path><path d="M234.3176974 398.63552325h-151.95435221c-31.38154089 0-31.86612395 30.82331295-31.86612394 30.82331299l31.38154087 507.94910889c0 32.33008646 32.38458366 32.33008646 32.38458366 32.33008646h131.51643514c27.39882772 0 27.15579973-21.38646267 27.15579973-21.38646267v-511.19684652c0-39.01114671-38.62082903-38.51772626-38.62082904-38.51772625v0 0zM234.3176974 398.63552325z" fill="#cdcdcd" p-id="4803"></path></svg>